<?xml version="1.0" encoding="utf-8"?>
<!-- Generator: Adobe Illustrator 16.0.0, SVG Export Plug-In . SVG Version: 6.00 Build 0)  -->
<!DOCTYPE svg PUBLIC "-//W3C//DTD SVG 1.1//EN" "http://www.w3.org/Graphics/SVG/1.1/DTD/svg11.dtd">
<svg version="1.1" id="Layer_1" xmlns="http://www.w3.org/2000/svg" xmlns:xlink="http://www.w3.org/1999/xlink" x="0px" y="0px"
	 width="98.16px" height="100px" viewBox="0 0 98.16 100" enable-background="new 0 0 98.16 100" xml:space="preserve">
<path fill="#010101" d="M29.367,0c-0.26,1.623-0.26,1.623-0.296,4.62C28.485,5.205,51.148,9.089,60.33,27.592
	c3.344,3.344-4.468,3.813-1.124,7.155c-3.298,3.189-9.671,9.114-12.589,11.927c-2.958,2.847-13.021,12.536-15.979,15.382
	c-3.56,3.43-7.122,6.855-10.681,10.284C13.795,78.276,7.633,84.209,1.471,90.142c-0.288,0.276-0.576,0.557-0.864,0.833
	c-0.793,0.765-0.8,2.056-0.07,2.784c1.161,1.163,1.691,1.689,2.853,2.854c1.163,1.161,1.691,1.689,2.854,2.852
	c0.729,0.729,2.021,0.724,2.786-0.07c0.278-0.287,0.554-0.575,0.832-0.862c5.933-6.163,11.867-12.326,17.799-18.488
	c3.381-3.511,6.762-7.021,10.142-10.531C40.601,66.6,50.53,56.293,53.329,53.384c2.811-2.918,9.054-9.135,12.244-12.435
	c0.965,0.963,0.534,0.285,1.499,1.249c2.392-0.592,3.052-3.343,5.618-2.372c4.305,1.624,9.488,7.366,13.983,13.358
	c0.662,0.251,11.174,19.006,11.486,18.603c-5.286-31.962-21.771-42.223-21.771-42.223c-0.003,0-0.003-0.002-0.006-0.004
	c0.873-0.895,1.745-1.791,2.616-2.687c0.403-0.413,0.433-1.066,0.04-1.459c-1.483-1.483-2.969-2.966-4.453-4.45
	c-0.393-0.391-1.045-0.364-1.458,0.038c-0.895,0.871-1.793,1.744-2.687,2.617c-0.001,0-0.001-0.002-0.003-0.002
	C63.154,12.402,29.367,0,29.367,0z"/>
</svg>
